<svg xmlns="http://www.w3.org/2000/svg" xmlns:xlink="http://www.w3.org/1999/xlink" viewBox="0 0 261.34 189.62"><defs><style>.cls-1,.cls-14,.cls-18{fill:none;}.cls-2{isolation:isolate;}.cls-3{fill:#eaebfb;}.cls-4{clip-path:url(#clip-path);}.cls-5{fill:#e1e2f5;}.cls-6{fill:#f2f3ff;}.cls-7{fill:#d9ddfb;}.cls-8{fill:#c7cbe8;}.cls-9{fill:#fff;}.cls-10{fill:#8992c6;}.cls-11{fill:#abb0d3;}.cls-12{fill:#95b9fc;}.cls-13{fill:#648dd6;}.cls-14{stroke:#eaebfb;stroke-width:0.9px;}.cls-14,.cls-18{stroke-linecap:round;stroke-linejoin:round;}.cls-15{fill:#4747ce;}.cls-16{fill:#93b7fa;}.cls-17{fill:#648bd4;}.cls-18{stroke:#1d2738;stroke-width:0.49px;}.cls-19{fill:#3d415b;}.cls-20{fill:#c8c8c8;opacity:0.44;}.cls-20,.cls-31{mix-blend-mode:multiply;}.cls-21{fill:#29323d;}.cls-22{fill:#4633ea;}.cls-23{fill:#583bf7;}.cls-24{fill:#ddb28d;}.cls-25{fill:#df7383;}.cls-26{fill:#f4f8ff;}.cls-27{fill:#e3bc9a;}.cls-28{fill:#282c3c;}.cls-29{fill:#e0ae76;}.cls-30{fill:#535975;}.cls-31{fill:#b8b8b8;opacity:0.12;}.cls-32{fill:#b4bad8;}</style><clipPath id="clip-path"><path class="cls-1" d="M50.33,163.15S11.85,147,12.75,114.44s37-42.8,61.75-22.69,48.62,14.16,61.45-2.83S157.32,34.68,193.22,49C220,59.72,238,88.42,243.76,114.29c4,17.78-1.79,36.57-15.74,48.3-.45.38-.92.76-1.39,1.13Z"/></clipPath></defs><title>Asset 2</title><g class="cls-2"><g id="Layer_2" data-name="Layer 2"><g id="OBJECTS"><path class="cls-3" d="M50.33,163.15S11.85,147,12.75,114.44s37-37.66,61.75-17.56S123.12,111,136,94.05s21.37-59.37,57.27-45C220,59.72,238,88.42,243.76,114.29c4,17.78-1.79,36.57-15.74,48.3-.45.38-.92.76-1.39,1.13Z"/><g class="cls-4"><path class="cls-5" d="M89.49,93.23S81.06,163.35,133.73,125C177,93.54,238.23,97.1,239.49,172.85c0,0,22.16,1,20.19-37.37S240,9.61,188.85,19.45,89.49,93.23,89.49,93.23Z"/></g><path class="cls-6" d="M98.29,34.72l46.67.19a10.76,10.76,0,0,1,10.69,11.52l-7.57,107.5a10.6,10.6,0,0,1-10.57,9.85H90.07A10.6,10.6,0,0,1,79.5,152.39l8-107.71A10.76,10.76,0,0,1,98.29,34.72Z"/><path class="cls-7" d="M98.29,34.72l46.67.19a10.76,10.76,0,0,1,10.69,11.52l-7.57,107.5a10.6,10.6,0,0,1-10.57,9.85H90.07A10.6,10.6,0,0,1,79.5,152.39l8-107.71A10.76,10.76,0,0,1,98.29,34.72Z"/><path class="cls-8" d="M93.05,34.72l46.67.19a10.77,10.77,0,0,1,10.69,11.52l-7.58,107.5a10.6,10.6,0,0,1-10.57,9.85H84.82a10.59,10.59,0,0,1-10.56-11.39l8-107.71A10.77,10.77,0,0,1,93.05,34.72Z"/><polygon class="cls-9" points="89.52 44.56 142.89 44.56 136.47 147.1 82.9 147.5 89.52 44.56"/><path class="cls-10" d="M107.31,160.36a5.3,5.3,0,1,1,5.3-5.3A5.3,5.3,0,0,1,107.31,160.36Zm0-9.85a4.56,4.56,0,1,0,4.56,4.55A4.55,4.55,0,0,0,107.31,150.51Z"/><path class="cls-10" d="M121.1,40.77h-8.95a.91.91,0,0,1-.91-.91h0a.91.91,0,0,1,.91-.91h8.95a.91.91,0,0,1,.91.91h0A.91.91,0,0,1,121.1,40.77Z"/><path class="cls-7" d="M136.35,71H93a2,2,0,0,1-2-2.07l.58-11.75a2,2,0,0,1,2-1.87h43.32a2,2,0,0,1,2,2.07l-.58,11.75A2,2,0,0,1,136.35,71Z"/><path class="cls-8" d="M124.4,71h11.95a2,2,0,0,0,2-1.86l.59-11.81a2,2,0,0,0-2-2.06H125a2,2,0,0,0-2,1.86L122.44,69A2,2,0,0,0,124.4,71Z"/><path class="cls-10" d="M120.36,59.29H95.72a.3.3,0,1,1,0-.59h24.64a.3.3,0,1,1,0,.59Z"/><path class="cls-10" d="M120.17,63.22H95.52a.29.29,0,0,1-.29-.29.3.3,0,0,1,.29-.3h24.65a.3.3,0,0,1,.29.3A.29.29,0,0,1,120.17,63.22Z"/><path class="cls-10" d="M107.5,67.15H95.33a.29.29,0,1,1,0-.58H107.5a.29.29,0,1,1,0,.58Z"/><path class="cls-7" d="M134.82,93.21H91.49a2,2,0,0,1-2-2.07l.58-11.75a2,2,0,0,1,2-1.88H135.4a2,2,0,0,1,2,2.07l-.58,11.75A2,2,0,0,1,134.82,93.21Z"/><path class="cls-8" d="M122.86,93.25h12a2,2,0,0,0,2-1.87l.59-11.81a2,2,0,0,0-2-2.06h-12a2,2,0,0,0-2,1.87l-.59,11.81A2,2,0,0,0,122.86,93.25Z"/><path class="cls-10" d="M118.83,81.5H94.18a.29.29,0,1,1,0-.58h24.65a.29.29,0,0,1,0,.58Z"/><path class="cls-10" d="M118.63,85.44H94a.31.31,0,0,1-.3-.3.3.3,0,0,1,.3-.29h24.64a.29.29,0,0,1,.3.29A.3.3,0,0,1,118.63,85.44Z"/><path class="cls-10" d="M106,89.37H93.8a.3.3,0,1,1,0-.59H106a.3.3,0,0,1,0,.59Z"/><polygon class="cls-11" points="89.52 44.56 82.9 147.5 81.82 147.5 88.46 44.56 89.52 44.56"/><path class="cls-9" d="M134.91,63.56a4.91,4.91,0,1,1-4.56-5.23A4.92,4.92,0,0,1,134.91,63.56Z"/><path class="cls-8" d="M129.14,65.11a.5.5,0,0,1-.28-.12l-1.65-1.62a.45.45,0,0,1,0-.63.44.44,0,0,1,.62,0l1.37,1.34,3.14-2.53a.44.44,0,1,1,.55.69L129.44,65A.37.37,0,0,1,129.14,65.11Z"/><path class="cls-9" d="M133.76,85.77a4.91,4.91,0,1,1-4.56-5.23A4.91,4.91,0,0,1,133.76,85.77Z"/><path class="cls-8" d="M128,87.32a.36.36,0,0,1-.28-.12l-1.65-1.62a.44.44,0,1,1,.62-.63L128,86.3l3.15-2.53a.43.43,0,0,1,.62.06.44.44,0,0,1-.07.62l-3.45,2.78A.43.43,0,0,1,128,87.32Z"/><path class="cls-12" d="M32.66,125.54s-.63-1-2.25-7.52-5.87-12.79-12.49-10.47-4.72,10-1.46,22.49c2.33,8.9-7.18,15.8,5.35,22.71,7.59,4.18,20.77-1.45,18.19-14.1a17.12,17.12,0,0,0-3.22-7.08A47.45,47.45,0,0,1,32.66,125.54Z"/><path class="cls-13" d="M27.42,164.57a.28.28,0,0,1-.22-.32c3-19.26-5.21-45.14-5.29-45.4a.28.28,0,0,1,.18-.36.29.29,0,0,1,.36.19c.08.26,8.35,26.26,5.31,45.66a.28.28,0,0,1-.32.24Z"/><path class="cls-13" d="M24.77,129h-.05a.29.29,0,0,1-.15-.38,38.08,38.08,0,0,0,1.93-6.37.28.28,0,0,1,.33-.23.28.28,0,0,1,.23.33,37.82,37.82,0,0,1-2,6.49A.28.28,0,0,1,24.77,129Z"/><path class="cls-13" d="M25.93,134.78a.22.22,0,0,1-.11-.05c-1.47-1.14-5.15-3.25-5.18-3.28a.27.27,0,0,1-.11-.38.28.28,0,0,1,.39-.11c.15.09,3.74,2.16,5.24,3.32a.29.29,0,0,1,.06.4A.3.3,0,0,1,25.93,134.78Z"/><path class="cls-13" d="M26.92,140.4l-.06,0a.29.29,0,0,1-.14-.38l1.88-4a.28.28,0,0,1,.38-.14.3.3,0,0,1,.14.38l-1.88,4A.3.3,0,0,1,26.92,140.4Z"/><path class="cls-3" d="M61.6,61.84a29.55,29.55,0,0,0-2.11-2.19c-1.45-1.25-3.11-3.44-8.41-1.82a10.23,10.23,0,0,0-1.2.46,3.89,3.89,0,0,1-3.4-1C44.13,55.44,43.2,54,40,54c-3.76-.05-4.35,4.63-7.27,5.83-1.85.76-6.75,1.52-7.76,1.85Z"/><path class="cls-14" d="M133.19,7.33A25.22,25.22,0,0,1,135,5.41c1.27-1.09,2.72-3,7.37-1.6a10.53,10.53,0,0,1,1.06.41,3.39,3.39,0,0,0,3-.86c2.07-1.63,2.88-2.87,5.7-2.91,3.3,0,3.81,4.06,6.37,5.11,1.63.67,5.92,1.33,6.81,1.63Z"/><path class="cls-3" d="M190.37,29.35A45,45,0,0,1,193.62,26c2.23-1.91,4.78-5.29,12.93-2.8a17.38,17.38,0,0,1,1.86.71c.72.3,3,.31,5.23-1.5,3.63-2.88,5-5.05,10-5.12,5.78-.08,6.69,7.13,11.18,9,2.86,1.18,10.4,2.34,12,2.86Z"/><path class="cls-15" d="M72.31,33.94a7.25,7.25,0,0,0-5.59-11.89H51a7.26,7.26,0,0,0,0,14.52H66.72A7.16,7.16,0,0,0,70,35.8l3.64,2Z"/><path class="cls-9" d="M62.71,29.31a1.58,1.58,0,1,0,1.58-1.58A1.58,1.58,0,0,0,62.71,29.31Z"/><path class="cls-9" d="M57.28,29.31a1.58,1.58,0,1,0,1.58-1.58A1.58,1.58,0,0,0,57.28,29.31Z"/><path class="cls-9" d="M51.85,29.31a1.58,1.58,0,1,0,1.58-1.58A1.58,1.58,0,0,0,51.85,29.31Z"/><path class="cls-16" d="M204.81,146.06c-.5,0-13.11-1.48-13.68-13.21s7.46-14.63,5.34-27.69-7.66-16.81,4.78-26.34c0,0,5.54-3.84,5.8-9.23.31-6.44,11.43-13.92,18.9-9.62s5.7,10.94-.69,21.69-.23,12.62,1,16.09,4.07,7.12-2.45,15.43,1.25,18.44-4.3,26.39C219.51,139.57,214.64,145.46,204.81,146.06Z"/><path class="cls-17" d="M206.78,164a.53.53,0,0,0,.39-.61c-6.77-35.81,7-84.63,7.18-85.12a.53.53,0,0,0-.36-.66.53.53,0,0,0-.66.37c-.14.49-14,49.56-7.2,85.6a.53.53,0,0,0,.62.43Z"/><path class="cls-17" d="M209.61,97.47l.09,0a.53.53,0,0,0,.27-.7A70.63,70.63,0,0,1,206,85a.53.53,0,0,0-.63-.41.52.52,0,0,0-.41.63,73.47,73.47,0,0,0,4.06,12A.52.52,0,0,0,209.61,97.47Z"/><path class="cls-17" d="M207.79,108.31a.71.71,0,0,0,.21-.11c2.67-2.21,9.41-6.38,9.48-6.42a.55.55,0,0,0,.17-.74.52.52,0,0,0-.73-.17c-.28.17-6.87,4.25-9.6,6.51a.53.53,0,0,0-.07.75A.54.54,0,0,0,207.79,108.31Z"/><path class="cls-17" d="M206.28,118.85l.11,0a.54.54,0,0,0,.23-.72l-3.75-7.41a.53.53,0,0,0-.72-.23.52.52,0,0,0-.23.71l3.75,7.42A.54.54,0,0,0,206.28,118.85Z"/><path class="cls-15" d="M235.09,150.7c-.47.36-4.69-7.28-5.68-17,0,0-.47-4.78,4.06-2.34,0,0-4.69-20.91,7.81-19.35a6.52,6.52,0,0,1,4.63,2.11c1.68,1.84,2.6,4.82.62,9.09-4,8.56-7.45,11.88-5.74,16.41S241.91,145.43,235.09,150.7Z"/><path class="cls-16" d="M236.31,164.31a.46.46,0,0,0,.36-.54c-2.89-14.06,1.26-37.73,1.79-38.77a.44.44,0,0,0-.12-.63.47.47,0,0,0-.65.12c-.85,1.19-4.72,25.83-1.93,39.46A.47.47,0,0,0,236.31,164.31Z"/><line class="cls-18" x1="0.25" y1="164.01" x2="261.09" y2="164.01"/><polygon class="cls-19" points="160.98 119.43 159.34 125.98 179.13 127.04 178.46 118.83 160.98 119.43"/><polygon class="cls-19" points="169.12 123.69 163.36 143.15 163.47 172.53 156.45 172.68 155.09 142.7 159.79 124.22 169.12 123.69"/><polygon class="cls-20" points="168.3 126.46 163.73 126.03 167.09 130.56 168.3 126.46"/><polygon class="cls-19" points="179.09 125.71 180.42 143.96 185.98 174.08 179.03 175.51 172.31 144.78 169.99 123.73 179.09 125.71"/><path class="cls-21" d="M158.45,172.59l3.83,0,.1,5.48-10.88.08h0a1.94,1.94,0,0,1,1.49-1.75l5.39-1.32Z"/><rect class="cls-8" x="151.5" y="178.08" width="10.88" height="0.85" transform="translate(-1.17 1.04) rotate(-0.38)"/><path class="cls-9" d="M161.12,174.85a.84.84,0,1,1-.84-.82A.82.82,0,0,1,161.12,174.85Z"/><path class="cls-21" d="M181,174.75l3.79-.51.78,5.43-10.78,1.43h0a2,2,0,0,1,1.26-1.92l5.19-2Z"/><rect class="cls-8" x="174.84" y="180.38" width="10.88" height="0.85" transform="translate(-22.19 25.25) rotate(-7.55)"/><path class="cls-9" d="M184,176.66a.83.83,0,1,1-.94-.72A.84.84,0,0,1,184,176.66Z"/><path class="cls-22" d="M153,109.34l-.23,0-17.88-2.66.87-5.84,16,2.38a127.07,127.07,0,0,1,8.05-10.49c0,.07.18.26,0,0l5.64.58c.25,1.43-1,1.44-9.8,14.74A3,3,0,0,1,153,109.34Z"/><path class="cls-23" d="M169.81,91.18l.58.09a6.44,6.44,0,0,1,5.22,4.84l4.09,23.29c-8.7,4.75-19.7.06-19.7.06l-2.12-21.73A5.7,5.7,0,0,1,161,91.94h0Z"/><polygon class="cls-24" points="167.84 93.25 162.95 92.84 163.74 81.72 168.64 82.13 167.84 93.25"/><path class="cls-24" d="M161.75,91.88l7.48-.66a4.33,4.33,0,0,1-4.57,4.31C160.54,95.47,161.75,91.88,161.75,91.88Z"/><path class="cls-9" d="M135.17,103.72a3.17,3.17,0,1,1-2.6-3.66A3.17,3.17,0,0,1,135.17,103.72Z"/><path class="cls-9" d="M136.91,105.62l-3.25-.55a1.57,1.57,0,0,1-1.29-1.81h0a1.58,1.58,0,0,1,1.81-1.28l3.26.55a1.57,1.57,0,0,1,1.28,1.81h0A1.57,1.57,0,0,1,136.91,105.62Z"/><circle class="cls-25" cx="135.17" cy="105.83" r="9.13" transform="translate(-19.2 180.93) rotate(-64)"/><path class="cls-26" d="M133.54,109.34a.82.82,0,0,1-.52-.23l-3.06-3a.81.81,0,0,1,0-1.16.8.8,0,0,1,1.15,0l2.55,2.5,5.85-4.71a.82.82,0,1,1,1,1.28l-6.41,5.16A.77.77,0,0,1,133.54,109.34Z"/><path class="cls-27" d="M162.06,89.21h0a6,6,0,0,1-5.61-6.44l.52-7.49,12.05.83-.52,7.49A6,6,0,0,1,162.06,89.21Z"/><path class="cls-28" d="M168.58,81.61l-1.72-.09a.74.74,0,0,1-.69-.92c.3-1.23.69-3.34-.1-3.65-1.13-.43-7.36.81-9.36-.91-2.82-2.42-.48-5.89,2.19-5.88s2.09,3.06,5.2,3.19,7.88-.79,5.36,7.31Z"/><path class="cls-27" d="M170.68,82.08a1.9,1.9,0,1,1-1.76-2A1.9,1.9,0,0,1,170.68,82.08Z"/><path class="cls-29" d="M147.14,111.53a3.18,3.18,0,1,1-2.95-3.39A3.18,3.18,0,0,1,147.14,111.53Z"/><path class="cls-29" d="M149.06,113.25l-3.29-.23a1.57,1.57,0,0,1-1.46-1.67h0a1.58,1.58,0,0,1,1.67-1.46l3.3.23a1.57,1.57,0,0,1,1.45,1.68h0A1.57,1.57,0,0,1,149.06,113.25Z"/><path class="cls-23" d="M147.26,114.44v-5.91l16.28,0,5.59-13.27a2.94,2.94,0,0,1,3.91-1.46h0a2.94,2.94,0,0,1,1.46,3.91l-6.38,15a3,3,0,0,1-2.69,1.73Z"/><rect class="cls-30" x="155.54" y="169.6" width="8.81" height="3.07"/><rect class="cls-30" x="177.9" y="171.96" width="8.81" height="3.07" transform="translate(-29.98 38.33) rotate(-11.09)"/><path class="cls-9" d="M157.63,83.87l5.2.24s-.31,2-3.11,1.69C157.51,85.56,157.63,83.87,157.63,83.87Z"/><path class="cls-22" d="M159.51,114.46h5.26a4,4,0,0,0,3.4-2.33L174,98.92c-2.26,7.71-5.24,15.56-5.24,15.56a2.44,2.44,0,0,1-2.4,1.62l-6.73-.27Z"/><rect class="cls-31" x="85.25" y="112.72" width="43.05" height="14.29" rx="1.93" ry="1.93" transform="translate(-14.82 15.07) rotate(-7.55)"/><rect class="cls-7" x="82.47" y="108.03" width="43.05" height="14.29" rx="1.93" ry="1.93" transform="translate(-14.23 14.66) rotate(-7.55)"/><path class="cls-10" d="M85.93,114a.27.27,0,0,1-.27-.23.26.26,0,0,1,.23-.3l22.25-3a.26.26,0,0,1,.3.23.26.26,0,0,1-.23.3L86,114Z"/><path class="cls-10" d="M86.4,117.58a.27.27,0,0,1-.27-.23.26.26,0,0,1,.23-.3l22.25-3a.26.26,0,0,1,.3.23.26.26,0,0,1-.23.3l-22.25,3Z"/><path class="cls-10" d="M86.87,121.13a.27.27,0,0,1,0-.53l11-1.48a.26.26,0,0,1,.3.23.26.26,0,0,1-.23.3l-11,1.48Z"/><path class="cls-21" d="M70.85,169.06l-3.48-.26-.51,5.72,9.92.79.06-.77a1.78,1.78,0,0,0-1.25-1.69l-4.83-1.54Z"/><path class="cls-21" d="M25.71,167l-.35-3.48-5.72.49.95,9.91.77-.07a1.79,1.79,0,0,0,1.44-1.53l.67-5Z"/><path class="cls-23" d="M40.08,141l6.32,20.37-22,1.31L25,168l26.87-.91a3.74,3.74,0,0,0,3.71-4.67l-1.5-15.14L68.3,147,65.85,169.5l6.12.22,6-25.25a5,5,0,0,0-4.75-6.15L58.77,138Z"/><polygon class="cls-24" points="49.16 117.28 54.59 118.43 56.89 106.91 51.51 105.78 49.16 117.28"/><path class="cls-27" d="M53.42,112.92h0a5.62,5.62,0,0,0,6.66-4.35l1.43-6.84-11-2.31-1.43,6.84A5.62,5.62,0,0,0,53.42,112.92Z"/><path class="cls-28" d="M57.48,104.69l-1,5a3.62,3.62,0,0,1-4.2,2.91l-1-.21a6.32,6.32,0,0,1-4.68-7.61l1-4.55,10.34,2.17Z"/><path class="cls-28" d="M57.13,103.94a23.2,23.2,0,0,0,4.21.71,2.54,2.54,0,0,0,2.11-4.06,2,2,0,0,0-.19-.22,4,4,0,0,0-4.43-.71C58.85,99.83,57.13,103.94,57.13,103.94Z"/><path class="cls-28" d="M60.46,101s-3.16-4.64-8.63-3.28c0,0-2.1-.11-4.31,2.51l9.2,4.38Z"/><path class="cls-27" d="M55.23,106.91a1.64,1.64,0,1,0,2-1.27A1.64,1.64,0,0,0,55.23,106.91Z"/><path class="cls-28" d="M52.83,97.07a5.32,5.32,0,1,1-4.12-6.29A5.32,5.32,0,0,1,52.83,97.07Z"/><path class="cls-25" d="M58.92,137.77c-2-3.29-1.07-10.91-.23-15.48a5.58,5.58,0,0,0-2.55-5.72h0l-6.29-1.86c-1.56-.54-3.6,1.28-4.71,2.5C35.21,128.11,39,142,39,142a30.57,30.57,0,0,0,9.81.51h.21A17.2,17.2,0,0,0,58.92,137.77Z"/><path class="cls-27" d="M82.56,119.94a3.4,3.4,0,1,0,.76-4.75A3.4,3.4,0,0,0,82.56,119.94Z"/><path class="cls-27" d="M81.79,122.59l2.87-2.07a1.7,1.7,0,0,0,.37-2.35h0a1.69,1.69,0,0,0-2.34-.37l-2.87,2.07a1.69,1.69,0,0,0-.38,2.35h0A1.7,1.7,0,0,0,81.79,122.59Z"/><path class="cls-25" d="M84.1,122.65l-3.35-5.36L66,126.53l-9.28-9.44a3.16,3.16,0,0,0-4.38.88h0a3.17,3.17,0,0,0,.88,4.39l11,10.57a3.16,3.16,0,0,0,3.42,0Z"/><polygon class="cls-20" points="54.09 147.25 60.05 143.91 59.73 145.46 68.3 147.03 54.09 147.25"/><path class="cls-9" d="M185.4,62.77l-.49-1.41-.49,1.41a5,5,0,0,1-2.74,2.79h0a5,5,0,0,1,2.74,2.79l.49,1.41.49-1.41a4.93,4.93,0,0,1,2.74-2.79h0A4.93,4.93,0,0,1,185.4,62.77Z"/><path class="cls-9" d="M37.57,103.75l-.32-.93-.33.93a3.2,3.2,0,0,1-1.81,1.84h0a3.23,3.23,0,0,1,1.81,1.84l.33.93.32-.93a3.29,3.29,0,0,1,1.81-1.84h0A3.26,3.26,0,0,1,37.57,103.75Z"/><polygon class="cls-32" points="86.05 185.91 87.25 188.24 101.07 188.59 103.88 180.89 102.72 178.65 86.05 185.91"/><path class="cls-32" d="M89.12,189.16l12.06.46c1.06,0,1.94-.43,2-1.06l.8-7.18c.08-.68-.81-1.29-1.94-1.33L90,179.59c-1,0-1.94.42-2,1.06l-.8,7.18C87.1,188.51,88,189.12,89.12,189.16Z"/><path class="cls-8" d="M88,186.91l12.07.46c1,0,1.93-.43,2-1.06l.8-7.18c.08-.68-.8-1.29-1.94-1.33l-12.06-.46c-1.06,0-1.94.43-2,1.06l-.8,7.18C85.93,186.26,86.82,186.87,88,186.91Z"/></g></g></g></svg>